# xmcd CD database file
#
# Track frame offsets:
#	150
#	14180
#	30575
#	47722
#	69502
#	90255
#	114855
#	133572
#	156337
#	174052
#	194887
#	221802
#	237842
#
# Disc length: 3482 seconds
#
# Revision: 1
# Processed by: cddbd v1.5.2PL0 Copyright (c) Steve Scherf et al.
# Submitted via: CDex 1.70beta2
#
DISCID=af0d980d
DTITLE=Beleza - Tribute to Antonio Carlos Jobin
DYEAR=1995
DGENRE=Latin Jazz - Bossa Nova
TTITLE0=Time After Time
TTITLE1=Agra de Bebea
TTITLE2=A Garota de Ipanema
TTITLE3=Chega de Saudade
TTITLE4=One Note Samba
TTITLE5=This Masquarade
TTITLE6=Corcovada
TTITLE7=Desafinado
TTITLE8=Besame Mucho
TTITLE9=Wave
TTITLE10=A Felicidade
TTITLE11=Doralice
TTITLE12=Dindi
EXTD=YEAR: 1995
EXTT0=
EXTT1=
EXTT2=
EXTT3=
EXTT4=
EXTT5=
EXTT6=
EXTT7=
EXTT8=
EXTT9=
EXTT10=
EXTT11=
EXTT12=
PLAYORDER=
